<svg width="463" height="99" viewBox="0 0 463 99" fill="none" xmlns="http://www.w3.org/2000/svg">
<path d="M59.3506 60.6436L48.9404 30.6191C48.6442 29.7305 48.2633 28.207 47.7979 26.0488C47.3324 23.8906 46.8457 21.2458 46.3379 18.1143C45.7878 21.1188 45.2588 23.8271 44.751 26.2393C44.2432 28.609 43.8623 30.196 43.6084 31L33.5791 60.6436H59.3506ZM0.19043 96L35.5469 3.07031H58.2715L94.1357 96H71.5381L63.9844 76.2588H27.9932L21.5186 96H0.19043ZM126.379 80.5117H134.187C139.18 80.5117 142.968 79.4326 145.549 77.2744C148.131 75.0739 149.421 71.8789 149.421 67.6895C149.421 63.7539 148.131 60.7493 145.549 58.6758C143.01 56.6022 139.307 55.5654 134.441 55.5654H126.379V80.5117ZM126.379 40.2041H130.823C136.832 40.2041 141.085 39.3577 143.581 37.665C146.078 35.9723 147.327 33.137 147.327 29.1592C147.327 25.266 146.121 22.4941 143.708 20.8438C141.339 19.1934 137.17 18.3682 131.204 18.3682H126.379V40.2041ZM106.511 96V3.07031H123.904C132.917 3.07031 139.498 3.43001 143.645 4.14941C147.834 4.8265 151.453 5.96908 154.499 7.57715C158.096 9.65072 160.868 12.3802 162.815 15.7656C164.804 19.151 165.798 22.9808 165.798 27.2549C165.798 32.7562 164.169 37.1784 160.911 40.5215C157.652 43.8223 152.786 46.0228 146.311 47.123C153.801 48.2233 159.451 50.6566 163.259 54.4229C167.11 58.1891 169.036 63.2038 169.036 69.4668C169.036 74.0371 167.935 78.2266 165.735 82.0352C163.534 85.8014 160.509 88.7214 156.658 90.7949C153.23 92.6569 149.21 93.9899 144.597 94.7939C139.984 95.598 132.346 96 121.682 96H119.651H106.511ZM281.958 49.7256C281.958 56.3695 280.709 62.6536 278.213 68.5781C275.758 74.5026 272.204 79.7077 267.549 84.1934C262.724 88.806 257.287 92.3395 251.235 94.7939C245.184 97.2484 238.921 98.4756 232.446 98.4756C226.776 98.4756 221.211 97.5234 215.752 95.6191C210.335 93.6725 205.363 90.9007 200.835 87.3037C194.995 82.6488 190.509 77.084 187.378 70.6094C184.289 64.1348 182.744 57.1735 182.744 49.7256C182.744 43.0394 183.971 36.7764 186.426 30.9365C188.88 25.0544 192.477 19.8281 197.217 15.2578C201.872 10.7298 207.267 7.21745 213.403 4.7207C219.582 2.22396 225.929 0.975586 232.446 0.975586C238.921 0.975586 245.205 2.22396 251.299 4.7207C257.435 7.21745 262.851 10.7298 267.549 15.2578C272.246 19.8281 275.822 25.0544 278.276 30.9365C280.731 36.8187 281.958 43.0817 281.958 49.7256ZM232.446 80.7656C240.867 80.7656 247.807 77.8245 253.266 71.9424C258.768 66.0179 261.518 58.6123 261.518 49.7256C261.518 40.9235 258.747 33.5179 253.203 27.5088C247.659 21.4997 240.74 18.4951 232.446 18.4951C224.025 18.4951 217.042 21.4997 211.499 27.5088C205.955 33.4756 203.183 40.8812 203.183 49.7256C203.183 58.6969 205.913 66.1237 211.372 72.0059C216.831 77.8457 223.856 80.7656 232.446 80.7656ZM381.296 3.07031V60.8975C381.296 73.5081 377.974 82.9238 371.33 89.1445C364.686 95.3652 354.678 98.4756 341.306 98.4756C327.722 98.4756 317.608 95.3652 310.964 89.1445C304.32 82.9238 300.998 73.5081 300.998 60.8975V3.07031H320.739V57.7871C320.739 65.4466 322.432 71.223 325.818 75.1162C329.203 78.9671 334.26 80.8926 340.988 80.8926C347.759 80.8926 352.88 78.946 356.35 75.0527C359.82 71.1595 361.555 65.4043 361.555 57.7871V3.07031H381.296ZM439.248 19.9551V96H419.316V19.9551H396.591V3.07031H462.099V19.9551H439.248Z" fill="#1E2019"/>
</svg>
